<svg xmlns="http://www.w3.org/2000/svg" width="512" height="512" viewBox="0 0 512 512">
  <rect width="512" height="512" rx="112" fill="#0f172a"/>

  <!-- Compass outer ring -->
  <circle cx="256" cy="256" r="215" fill="#1e293b"/>

  <!-- White face -->
  <circle cx="256" cy="256" r="194" fill="#f8fafc"/>

  <!-- Newspaper text bars -->
  <rect x="137" y="183" width="238" height="14" rx="7" fill="#bec8d7" opacity="0.63"/>
  <rect x="148" y="221" width="216" height="14" rx="7" fill="#bec8d7" opacity="0.63"/>
  <rect x="155" y="261" width="202" height="14" rx="7" fill="#bec8d7" opacity="0.63"/>
  <rect x="148" y="299" width="216" height="14" rx="7" fill="#bec8d7" opacity="0.63"/>

  <!-- Needle — north (red) -->
  <polygon points="256,86 232,256 280,256" fill="#dc2626"/>
  <!-- Needle — south -->
  <polygon points="256,426 232,256 280,256" fill="#334155"/>

  <!-- Centre cap -->
  <circle cx="256" cy="256" r="16" fill="#1e293b"/>
  <circle cx="256" cy="256" r="9" fill="#64748b"/>

  <!-- Cardinal dots -->
  <circle cx="256" cy="74"  r="6" fill="#1e293b"/>
  <circle cx="438" cy="256" r="6" fill="#1e293b"/>
  <circle cx="256" cy="438" r="6" fill="#1e293b"/>
  <circle cx="74"  cy="256" r="6" fill="#1e293b"/>
</svg>
